<?xml version="1.0" encoding="UTF-8" standalone="no"?><!DOCTYPE svg PUBLIC "-//W3C//DTD SVG 1.1//EN" "http://www.w3.org/Graphics/SVG/1.1/DTD/svg11.dtd"><svg width="100%" height="100%" viewBox="0 0 1009 447" version="1.1" xmlns="http://www.w3.org/2000/svg" xmlns:xlink="http://www.w3.org/1999/xlink" xml:space="preserve" xmlns:serif="http://www.serif.com/" style="fill-rule:evenodd;clip-rule:evenodd;stroke-linejoin:round;stroke-miterlimit:2;"><rect id="UVOD---desktop_1440px" serif:id="UVOD / desktop_1440px" x="-1572.22" y="-696.377" width="6000" height="17312.5" style="fill:none;"/><g id="footer"></g><g id="pohodlí"></g><g id="rezervace"></g><g id="poukaz"></g><g id="poukaz1" serif:id="poukaz"></g><g id="info-novinky"></g><g id="oSalonu"></g><g id="header2"><g id="LOGO"><path d="M120.839,331.233l-120.839,0l0,-3.597l110.434,0l10.405,3.597Z" style="fill:#cead78;fill-rule:nonzero;"/><path d="M440.254,331.233l-197.23,0l7.403,-3.597l180.996,0l8.831,3.597Z" style="fill:#cead78;fill-rule:nonzero;"/><path d="M1008.33,331.233l-526.611,0l11.711,-3.597l514.9,0l0,3.597Z" style="fill:#cead78;fill-rule:nonzero;"/><path d="M454.038,312.431c0.215,6.667 4.408,9.462 9.568,9.462c16.882,0 21.181,-21.718 25.27,-33.87c-21.614,4.517 -35.268,12.903 -34.838,24.408m29.998,-93.436c-7.312,1.073 -14.73,4.945 -14.408,11.826c0.108,3.333 4.623,6.99 9.676,6.99c-1.503,2.58 -3.655,5.698 -5.053,6.343c-6.773,-3.978 -9.891,-8.064 -10,-12.471c-0.322,-7.852 4.947,-12.366 11.937,-15.161c11.826,-4.517 24.622,-5.377 36.987,-5.377c4.515,-0 10.858,0.647 14.838,0.215l0.107,2.15c-2.044,2.903 -3.334,3.335 -5.268,10.968c-3.332,12.688 -11.935,43.654 -16.344,56.664c5.269,-0.752 9.247,-1.29 13.334,-4.194c2.471,-1.611 4.516,-4.193 6.773,-7.956c1.183,-0 2.688,0.967 3.118,1.72c-2.15,4.408 -4.73,7.526 -7.526,9.678c-4.302,3.225 -11.72,5.053 -17.42,5.805c-2.257,5.915 -4.622,11.505 -7.31,17.097c-7.635,15.376 -18.279,24.837 -36.666,24.837c-9.033,-0 -18.601,-5.807 -18.923,-14.623c-0.431,-14.408 21.397,-26.772 48.491,-30.644l6.023,-19.891c4.193,-12.903 8.493,-30.321 13.01,-42.471c-8.172,-2.258 -16.345,-2.903 -25.376,-1.505" style="fill:#a68352;fill-rule:nonzero;"/><path d="M543.049,289.424c-3.228,0 -5.378,-2.474 -5.483,-6.88c-0.324,-7.635 3.869,-22.043 7.847,-29.14c0.11,-0.205 0.227,-0.404 0.341,-0.606c2.735,-4.592 6.403,-7.974 11.175,-7.676c4.624,0.43 3.118,7.418 2.259,10.106c0,0 -2.152,7.527 -5.162,18.065c-1.454,5.291 -2.929,9.026 -4.442,11.614c-2.081,3.329 -4.24,4.517 -6.535,4.517m47.093,-19.246c-0.244,-0.43 -0.808,-0.924 -1.485,-1.274c-0.435,-0.509 -0.949,-0.917 -1.531,-0.917c-3.728,7.753 -8.386,13.397 -12.204,16.87c-2.86,2.44 -5.212,3.598 -6.285,3.598c-1.29,0 -3.009,-0.752 -1.826,-5.16l7.387,-27.818c0.135,-0.399 0.243,-0.799 0.318,-1.198l0.003,-0.011l-0.003,-0.001c0.69,-3.774 -1.287,-7.492 -4.429,-10.427c-1.85,-1.912 -5.344,-3.378 -9.136,-4.015c-0.966,-0.238 -2.084,-0.401 -3.386,-0.401c-12.134,0 -21.473,6.422 -27.383,16.24c-3.485,5.597 -5.832,12.346 -6.907,19.672c-1.935,12.365 3.227,21.288 14.623,21.288c6.666,0 10.86,-2.687 14.3,-7.203l0.753,0c1.29,4.408 4.623,7.096 9.247,7.096c10.076,-0 17.678,-8.143 23.828,-18.684c1.448,-2.44 2.817,-5.016 4.116,-7.655" style="fill:#a68352;fill-rule:nonzero;"/><path d="M646.594,268.992c-2.902,6.128 -6.237,10.86 -9.461,14.085c-1.935,1.937 -6.882,6.452 -9.57,6.452c-1.612,0 -2.365,-1.505 -3.44,-3.548c-2.582,-5.592 -4.302,-14.624 -5.269,-19.138c7.204,-2.044 15.269,-6.454 16.667,-13.872c1.182,-6.881 -5.27,-12.58 -13.012,-12.58c-4.192,-0 -9.352,1.182 -14.514,5.377l7.778,-28.038c0.477,-1.698 0.966,-3.44 1.471,-5.242l-8.361,0.269l-0.006,0.009c-2.367,0.097 -4.671,1.168 -6.23,2.9c-0.981,0.982 -1.725,2.196 -2.178,3.508l-0.003,0c-0.006,0.025 -0.012,0.048 -0.018,0.072c-0.108,0.32 -0.192,0.645 -0.265,0.974c-0.161,0.598 -0.314,1.16 -0.473,1.745l-1.511,5.534c-5.464,19.947 -9.138,32.506 -11.527,41.626c-0.184,0.381 -0.394,0.739 -0.591,1.112c0.149,0.009 0.3,0.011 0.45,0.022l-6.814,24.968l14.838,0l9.247,-33.87c2.795,-9.676 10.106,-14.731 14.408,-14.731c2.365,0 4.085,2.26 3.01,6.776c-1.182,5.053 -9.57,10.537 -16.665,11.397c0.751,4.623 3.332,17.633 6.235,23.978c2.367,5.16 5.055,7.74 11.29,7.74c12.258,0 20.859,-12.042 27.632,-25.805c-0.428,-0.753 -1.933,-1.72 -3.118,-1.72" style="fill:#a68352;fill-rule:nonzero;"/><path d="M706.37,268.992c-6.775,13.87 -16.022,19.998 -18.495,19.998c-1.29,0 -3.01,-0.752 -1.72,-5.16l11.828,-42.148l-15.053,0c-0,0 -7.097,25.374 -8.71,31.612c-2.043,7.955 -5.376,16.664 -11.289,16.664c-3.655,-0 -6.559,-3.118 -4.839,-9.031l11.29,-39.461l-0.103,0.003c-1.209,1.811 -3.235,3.085 -6.084,3.085c-1.462,0 -2.703,-0.342 -3.733,-0.912c-0.034,-0.02 -0.072,-0.035 -0.106,-0.055c-0.258,-0.149 -0.502,-0.312 -0.733,-0.489c-0.058,-0.044 -0.126,-0.076 -0.183,-0.121c-0.937,2.141 -2.803,3.84 -5.616,4.19c-0.017,0.044 -6.992,20.224 -9.031,31.825c-1.829,9.998 4.191,17.633 14.299,17.633c6.02,-0 11.184,-2.58 14.408,-7.096c0.539,3.763 3.442,6.988 9.247,6.988c12.258,0 20.86,-12.042 27.634,-25.805c-0.323,-0.753 -1.828,-1.72 -3.011,-1.72" style="fill:#a68352;fill-rule:nonzero;"/><path d="M739.157,269.422c-1.075,3.978 -2.259,8.493 -4.408,12.256c-6.559,-2.365 -12.472,-7.418 -12.795,-15.696c-0.107,-2.688 0.645,-5.592 1.826,-8.28c3.98,-8.388 9.249,-11.075 13.012,-11.075c6.128,-0 6.558,8.602 2.365,22.795m-15.268,21.075c-4.3,0 -7.741,-5.054 -6.02,-11.184l0.645,-2.688c1.503,4.195 6.341,8.28 12.256,10.538c-1.72,1.937 -4.085,3.334 -6.881,3.334m41.287,-21.505c-3.762,7.311 -9.568,12.795 -17.203,14.193c3.657,-4.408 6.451,-9.678 8.173,-15.268c3.547,-13.333 -1.076,-27.526 -15.163,-27.526c-6.128,0 -11.503,3.548 -14.298,7.203l9.464,-34.835c-0.011,0 -0.022,0.014 -0.031,0.017c0.026,-0.097 0.054,-0.192 0.08,-0.289l-8.36,0.268l-0.006,0.009c-2.367,0.098 -4.671,1.169 -6.231,2.901c-0.98,0.982 -1.725,2.196 -2.178,3.508l-0.003,0c-0.005,0.025 -0.011,0.046 -0.017,0.072c-0.069,0.205 -0.117,0.415 -0.169,0.621c-0.008,0.003 -0.012,0.007 -0.018,0.01l-10.182,36.96c-0.811,2.913 -1.542,5.566 -2.196,7.969l-0.797,2.897c-0.06,0.233 -0.112,0.461 -0.169,0.693c-0.017,0.059 -0.034,0.124 -0.049,0.182c0.001,0.002 0.003,0.002 0.003,0.003c-0.874,3.544 -1.622,6.895 -1.72,9.875c-0.217,11.288 6.235,17.848 18.923,18.063c7.096,-0 13.656,-2.903 19.031,-7.527c11.613,-0.214 20.644,-8.064 26.236,-18.279c-0.323,-0.752 -1.613,-1.612 -3.12,-1.72" style="fill:#a68352;fill-rule:nonzero;"/><path d="M816.458,268.992c1.184,-0 2.689,0.967 3.118,1.72c-6.666,12.473 -17.632,25.805 -38.062,25.805c-16.774,0 -22.473,-12.902 -18.494,-28.386c3.226,-12.041 10.536,-21.396 20.106,-25.698c5.7,-2.471 15.268,-4.408 20.321,0.43c1.398,1.29 2.152,2.688 2.905,3.872c0.428,0.859 0.858,2.043 2.042,2.043c1.827,-0 3.118,-1.613 3.333,-2.904l2.796,0.752c-1.506,5.377 -7.313,15.162 -14.838,15.162c-3.333,0 -5.593,-2.687 -5.484,-6.129c0.108,-4.086 2.581,-6.236 5.053,-7.743c-0.751,-2.471 -2.902,-2.793 -3.655,-2.793c-5.269,-0 -9.138,3.655 -11.828,8.279c-4.3,7.31 -7.31,18.171 -6.988,26.557c0.106,5.7 2.365,10.43 8.386,10.43c10,0 24.623,-7.527 31.289,-21.397" style="fill:#a68352;fill-rule:nonzero;"/><path d="M848.601,268.347c4.838,-14.623 2.905,-22.366 -3.44,-22.366c-6.237,0 -11.398,6.453 -15.592,22.366c-4.515,16.022 -3.224,22.472 3.227,22.472c3.87,0 7.418,-2.474 10.536,-8.17c-1.29,-1.507 -2.149,-3.335 -2.149,-5.377c-0.216,-4.087 3.011,-7.635 6.988,-7.741l0.43,-1.184Zm-16.45,28.171c-11.934,-0 -19.999,-10.323 -19.676,-22.902c0.752,-19.247 16.449,-33.548 33.222,-33.331c12.043,-0 19.785,10.751 19.785,22.686c-0.322,6.451 -2.043,12.579 -5.16,17.633c3.225,-0.645 9.355,-1.827 14.621,-11.612c1.184,-0 2.689,0.967 3.119,1.72c-6.559,13.01 -16.665,16.236 -22.793,16.236c-4.84,4.73 -13.98,10.107 -23.118,9.57" style="fill:#a68352;fill-rule:nonzero;"/><path d="M929.343,268.992c-2.581,5.16 -6.774,13.656 -13.869,13.656c-2.367,0 -4.086,-1.721 -1.83,-5.269c4.625,-7.42 7.635,-16.128 7.958,-24.623c0.107,-4.731 -2.796,-14.623 -9.248,-13.116c-3.01,0.967 -2.257,5.16 -5.698,5.16c-1.935,0 -2.258,-1.72 -2.044,-2.904l-3.01,-0c-1.505,5.375 -0.108,14.517 6.559,14.517c0.753,-0 1.504,-0 2.258,-0.217c1.075,9.678 -9.57,33.762 -19.891,33.762c-1.829,-0 -4.947,-2.043 -3.225,-9.676l8.433,-38.649c0,0 -13.049,7.231 -16.371,7.538c-1.317,5.073 -4.471,17.506 -6.042,26.595c-2.15,12.688 4.625,20.751 12.473,20.751c7.635,0 13.872,-3.547 19.678,-9.138c1.075,-0.968 1.503,-1.398 1.72,-1.72c0.645,2.795 3.655,3.87 6.773,3.87c9.461,0 14.947,-11.72 18.493,-18.817c-0.428,-0.753 -1.933,-1.72 -3.117,-1.72" style="fill:#a68352;fill-rule:nonzero;"/><path d="M972.561,226.305c7.096,-5.053 -1.72,-9.891 -4.73,-11.72l-13.012,19.355l3.549,2.258l14.193,-9.893Z" style="fill:#a68352;fill-rule:nonzero;"/><path d="M961.917,255.229c-0,-0 -2.15,7.525 -5.161,18.065c-3.549,12.901 -7.205,16.664 -11.29,16.664c-2.407,-0 -4.211,-1.378 -5.019,-3.908c-0.254,-0.832 -0.403,-1.78 -0.429,-2.846c-0.324,-7.634 3.871,-22.042 7.849,-29.14c2.795,-5.16 6.664,-9.14 11.827,-8.815c1.701,0.156 2.568,1.207 2.948,2.6c0.588,2.387 -0.191,5.71 -0.725,7.38m27.561,13.888c-5.712,11.885 -13.307,18.072 -16.922,19.603c-0.653,0.186 -1.209,0.27 -1.608,0.27c-0.624,0 -1.32,-0.21 -1.742,-0.908c-0.401,-0.752 -0.51,-2.012 0.057,-4.126l7.82,-28.534l-0.012,-0.017c0.957,-3.935 -1.041,-7.845 -4.316,-10.903c-1.944,-2.015 -5.721,-3.528 -9.746,-4.105c-0.876,-0.186 -1.863,-0.31 -2.994,-0.31c-14.629,-0 -25.194,9.331 -30.58,22.706c-1.616,3.882 -2.78,8.106 -3.431,12.543c-0.69,4.408 -0.461,8.365 0.614,11.651l-0.002,0c0.005,0.013 0.008,0.023 0.013,0.037c0.095,0.286 0.193,0.567 0.301,0.843c2.084,5.488 6.719,8.884 13.733,8.884c6.666,-0 10.859,-2.688 14.301,-7.203l0.657,-0c0.449,1.367 1.088,2.548 1.88,3.547c1.714,2.243 4.27,3.548 7.46,3.548c12.258,0 20.86,-12.041 27.635,-25.804c-0.43,-0.752 -1.828,-1.722 -3.118,-1.722" style="fill:#a68352;fill-rule:nonzero;"/><path d="M405.046,255.211c0,-0 -2.15,7.525 -5.162,18.065c-3.549,12.901 -7.203,16.665 -11.289,16.665c-3.228,0 -5.378,-2.474 -5.483,-6.88c-0.324,-7.635 3.869,-22.043 7.847,-29.14c2.795,-5.161 6.669,-9.14 11.828,-8.816c4.623,0.428 3.118,7.418 2.259,10.106m-233.616,-0c-0,-0 -2.152,7.525 -5.164,18.065c-3.545,12.901 -7.202,16.665 -11.287,16.665c-3.225,0 -5.376,-2.474 -5.485,-6.88c-0.324,-7.635 3.871,-22.043 7.849,-29.14c2.795,-5.161 6.668,-9.14 11.827,-8.816c4.626,0.428 3.12,7.418 2.26,10.106m145.672,-9.785c3.226,-0 3.762,2.259 3.762,5.162c-0.321,10.106 -6.774,15.805 -17.525,15.914c4.086,-13.549 9.033,-21.076 13.763,-21.076m115.47,23.548c-6.669,13.87 -15.913,19.998 -18.389,19.998c-1.29,0 -3.009,-0.752 -1.826,-5.16l7.387,-27.817c0.135,-0.4 0.244,-0.8 0.318,-1.199l0.003,-0.009l-0.003,-0.002c0.691,-3.773 -1.287,-7.492 -4.429,-10.427c-1.849,-1.913 -5.344,-3.379 -9.136,-4.016c-0.966,-0.238 -2.084,-0.399 -3.386,-0.399c-18.749,-0 -30.843,15.306 -33.888,34.828c-6.197,9.781 -13.151,14.201 -15.248,14.201c-1.181,0 -2.904,-0.645 -1.826,-5.16c1.719,-8.065 3.333,-13.117 19.675,-71.395l-8.36,0.269l-0.006,0.007c-2.367,0.099 -4.671,1.169 -6.231,2.901c-0.98,0.982 -1.725,2.197 -2.178,3.508l-0.003,0c-0.006,0.025 -0.012,0.048 -0.017,0.073c-0.109,0.319 -0.192,0.645 -0.264,0.973c-6.581,24.273 -10.845,38.72 -13.511,48.905c-6.687,13.819 -21.161,21.318 -31.142,21.318c-9.244,0 -9.244,-10.539 -7.846,-18.602c11.503,-0.323 31.715,-3.118 32.256,-19.784c0.213,-6.665 -4.838,-11.718 -14.302,-11.718c-15.912,-0 -28.063,11.181 -32.365,27.845c-0.592,2.305 -0.942,4.54 -1.102,6.698c-6.143,9.751 -12.929,14.162 -15.022,14.162c-1.29,0 -3.009,-0.752 -1.719,-5.16l11.504,-42.364l-8.297,0.269l-0.012,0.01c-2.405,0.066 -4.76,1.146 -6.345,2.906c-1.029,1.031 -1.794,2.321 -2.237,3.706l-0.01,0.006c0,0 -3.836,11.2 -6.676,22.155c-6.684,12.78 -15.323,18.472 -17.706,18.472c-1.288,0 -3.116,-0.752 -1.826,-5.16c6.021,-21.504 6.99,-23.654 7.419,-26.021c2.687,-11.181 -5.052,-17.417 -12.257,-17.417c-4.194,0 -9.141,1.181 -14.087,5.698l1.185,-4.624l-7.995,0.358l-0.015,0.01c-2.336,0.119 -4.605,1.186 -6.147,2.897c-1.142,1.144 -1.964,2.608 -2.374,4.173l-0.031,0.032l-5.507,20.756c-6.635,13.364 -15.599,19.298 -18.028,19.298c-1.291,0 -3.012,-0.752 -1.831,-5.16l7.794,-28.517l-0.012,-0.018c0.963,-3.94 -1.032,-7.856 -4.314,-10.919c-1.929,-1.996 -5.654,-3.505 -9.638,-4.091c-0.894,-0.195 -1.91,-0.324 -3.075,-0.324c-18.925,-0 -31.075,15.592 -33.978,35.375c-1.935,12.366 3.224,21.289 14.623,21.289c6.666,-0 10.861,-2.688 14.301,-7.203l0.752,-0c1.291,4.408 4.623,7.095 9.249,7.095c8.386,0 15.061,-5.641 20.61,-13.61l-3.308,12.32l14.837,0l9.249,-33.761c2.687,-9.678 9.139,-14.946 13.329,-14.946c2.476,0 4.087,2.364 3.121,6.883c-2.042,8.278 -5.699,16.234 -7.418,25.589c-1.831,9.998 0.753,17.525 9.244,17.525c8.895,0 15.857,-6.35 21.599,-15.086c-0.846,8.756 2.802,15.086 9.899,15.086c8.837,0 15.712,-6.274 21.405,-14.925c1.522,8.834 7.818,14.925 19.343,14.925c15.522,0 25.574,-7.7 32.433,-16.87c-0.461,2.533 -0.659,4.497 -0.614,6.119c0.324,6.449 3.225,10.751 9.785,10.751c8.487,0 15.239,-5.882 20.888,-14.117c0.728,8.553 5.834,14.225 14.914,14.225c6.666,-0 10.859,-2.688 14.299,-7.203l0.753,-0c1.29,4.408 4.623,7.095 9.246,7.095c12.259,0 20.86,-12.041 27.633,-25.804c-0.428,-0.752 -1.826,-1.721 -3.116,-1.721" style="fill:#a68352;fill-rule:nonzero;"/><path d="M281.946,232.095c3.119,-3.012 3.871,-8.495 0.216,-12.152c-3.657,-3.441 -9.141,-2.471 -12.041,0.752c-3.119,3.12 -3.874,8.604 -0.324,12.045c3.764,3.548 9.14,2.58 12.149,-0.645" style="fill:#a68352;fill-rule:nonzero;"/><path d="M46.847,306.685c-5.7,0.539 -8.604,-2.043 -8.816,-4.623c-0.217,-2.043 1.743,-4.104 5.375,-4.623c5.829,-0.833 14.786,3.343 22.633,6.14c-6.428,2.046 -14.354,2.677 -19.192,3.106m40.457,-2.11c3.731,-1.378 9.669,-3.448 14.759,-6.448c5.091,-3 7.859,-5.779 7.859,-5.779c11.612,-11.4 21.199,-24.799 20.554,-43.401c-1.076,-28.601 -28.278,-37.524 -48.169,-37.524c-5.571,-0 -11.166,0.658 -16.31,1.855l-1.422,5.025c-1.305,4.579 -4.569,16.107 -6.692,24.285c-5.487,20.924 -7.773,27.265 -9.198,31.108l-4.01,13.224c10.244,-0.541 15.698,-9 18.979,-19.478c2.649,-8.464 9.299,-28.587 14.954,-48.589c18.454,0.911 35.018,8.868 35.527,30.739c0.428,15.053 -6.688,27.595 -18.3,38.991c-0,0 -2.246,2.341 -7.283,5.858c-5.033,3.517 -8.297,4.833 -11.787,6.242c0,-0 -3.919,-1.453 -10.78,-3.567c-6.861,-2.115 -16.706,-4.426 -22.081,-3.997c-6.558,0.645 -10.499,5.719 -10.175,10.341c0.428,5.807 6.558,11.72 19.567,10.645c7.851,-0.751 16.324,-3.478 23.872,-6.46c-0,-0 109.61,59.922 183.392,0.459l-2.043,-2.043c-82.852,39.282 -171.213,-1.486 -171.213,-1.486" style="fill:#a68352;fill-rule:nonzero;"/><path d="M888.545,273.028c1.906,-8.303 4.262,-18.563 7.198,-31.389l-8.303,0.668l-0.004,0.009c-2.349,0.212 -4.589,1.389 -6.058,3.186c-0.927,1.023 -1.609,2.268 -1.998,3.595l-0.003,0c-0.005,0.025 -0.009,0.046 -0.012,0.074c-0.091,0.321 -0.16,0.65 -0.215,0.98c-1.656,7.543 -3.147,14.21 -4.487,20.143c4.728,0.585 9.345,1.331 13.882,2.734" style="fill:#a68352;fill-rule:nonzero;"/><path d="M660.447,272.593c2.318,-8.234 5.181,-18.411 8.748,-31.135l-8.359,0.267l-0.006,0.009c-2.367,0.098 -4.671,1.169 -6.231,2.901c-0.98,0.982 -1.725,2.197 -2.178,3.508l-0.003,0c-0.005,0.025 -0.011,0.046 -0.017,0.072c-0.109,0.32 -0.192,0.645 -0.264,0.974c-2.029,7.486 -3.851,14.101 -5.48,19.985c4.712,0.818 9.307,1.792 13.79,3.419" style="fill:#a68352;fill-rule:nonzero;"/><path d="M258.863,383.796c1.46,2.236 3.999,3.269 6.449,3.269c2.709,-0 6.065,-1.721 6.065,-5.075c-0,-7.01 -15.01,-2.666 -15.01,-14.535c-0,-3.57 3.012,-8.515 10.322,-8.515c3.312,-0 6.494,0.688 8.775,3.483l-3.358,3.053c-1.032,-1.591 -3.053,-2.666 -5.417,-2.666c-4.56,0 -5.934,2.752 -5.934,4.645c-0,7.697 15.008,3.096 15.008,14.062c0,5.892 -4.73,9.418 -10.58,9.418c-3.912,-0 -7.655,-1.333 -9.719,-4.215l3.399,-2.924Z" style="fill:#cfae78;fill-rule:nonzero;"/><path d="M296.749,373.132l5.417,0c3.27,0 6.537,-0.774 6.537,-4.902c-0,-4.13 -3.267,-4.904 -6.537,-4.904l-5.417,-0l0,9.806Zm-4.128,-13.417l10.706,-0c7.786,-0 9.765,4.686 9.765,8.515c0,3.825 -1.979,8.514 -9.765,8.514l-6.578,0l0,13.418l-4.128,-0l-0,-30.447Z" style="fill:#cfae78;fill-rule:nonzero;"/><path d="M328.874,359.714l19.651,0l-0,3.871l-15.523,-0l-0,9.074l14.449,-0l0,3.868l-14.449,0l-0,9.764l16.297,-0l0,3.87l-20.425,0l-0,-30.447Z" style="fill:#cfae78;fill-rule:nonzero;"/><path d="M387.098,366.293c-1.718,-2.235 -4.556,-3.484 -7.352,-3.484c-6.836,0 -11.354,5.463 -11.354,12.387c-0,6.408 4.26,11.868 11.354,11.868c3.482,-0 6.15,-1.547 7.956,-4.084l3.482,2.622c-0.903,1.248 -4.557,5.334 -11.525,5.334c-9.675,-0 -15.652,-8.085 -15.652,-15.74c-0,-9.461 6.493,-16.256 15.868,-16.256c3.998,0 8.214,1.504 10.664,4.731l-3.441,2.622Z" style="fill:#cfae78;fill-rule:nonzero;"/><rect x="406.924" y="359.715" width="4.13" height="30.447" style="fill:#cfae78;"/><path d="M446.574,379.024l-5.675,-13.978l-0.087,-0l-5.763,13.978l11.525,-0Zm-7.396,-19.309l3.743,-0l13.028,30.447l-4.815,-0l-3.054,-7.526l-14.491,-0l-3.012,7.526l-4.815,-0l13.416,-30.447Z" style="fill:#cfae78;fill-rule:nonzero;"/><path d="M470.656,359.714l4.13,0l0,26.577l13.977,-0l-0,3.87l-18.107,0l0,-30.447Z" style="fill:#cfae78;fill-rule:nonzero;"/><rect x="503.728" y="359.715" width="4.128" height="30.447" style="fill:#cfae78;"/><path d="M523.896,386.29l17.329,-22.706l-16.813,0l-0,-3.87l21.977,-0l-0,3.87l-17.247,22.706l17.505,0l-0,3.872l-22.751,0l-0,-3.872Z" style="fill:#cfae78;fill-rule:nonzero;"/><path d="M588.144,374.938c0,-6.666 -4.517,-12.127 -11.483,-12.127c-6.966,-0 -11.483,5.461 -11.483,12.127c0,6.666 4.517,12.127 11.483,12.127c6.966,0 11.483,-5.461 11.483,-12.127m-27.352,-0c-0,-9.033 6.58,-15.998 15.869,-15.998c9.29,0 15.868,6.965 15.868,15.998c0,9.031 -6.578,15.998 -15.868,15.998c-9.289,-0 -15.869,-6.967 -15.869,-15.998" style="fill:#cfae78;fill-rule:nonzero;"/><path d="M605.045,359.714l4.772,0l8.946,24.771l0.086,-0l9.288,-24.771l4.515,0l-11.997,30.447l-3.872,0l-11.738,-30.447Z" style="fill:#cfae78;fill-rule:nonzero;"/><path d="M664.002,379.024l-5.675,-13.978l-0.088,-0l-5.762,13.978l11.525,-0Zm-7.397,-19.309l3.743,-0l13.029,30.447l-4.815,-0l-3.055,-7.526l-14.491,-0l-3.012,7.526l-4.815,-0l13.416,-30.447Z" style="fill:#cfae78;fill-rule:nonzero;"/><path d="M688.084,359.714l5.42,0l16.771,25.029l0.085,-0l-0,-25.029l4.13,0l-0,30.447l-5.247,0l-16.945,-25.03l-0.084,0l-0,25.03l-4.13,0l-0,-30.447Z" style="fill:#cfae78;fill-rule:nonzero;"/><path d="M743.948,351.801l5.505,-0l-6.408,6.193l-3.569,-0l4.472,-6.193Zm-3.698,25.373l-11.526,-17.46l5.288,-0l8.302,13.374l8.558,-13.374l5.03,-0l-11.525,17.46l-0,12.988l-4.127,0l-0,-12.988Z" style="fill:#cfae78;fill-rule:nonzero;"/><path d="M211.856,415.006l4.13,-0l0,13.159l0.343,-0l13.46,-13.159l5.763,-0l-14.705,14.062l15.694,16.385l-6.021,-0l-14.191,-15.224l-0.343,0l0,15.224l-4.13,-0l0,-30.447Z" style="fill:#cfae78;fill-rule:nonzero;"/><path d="M275.934,430.229c-0,-6.665 -4.517,-12.127 -11.484,-12.127c-6.965,-0 -11.482,5.462 -11.482,12.127c0,6.666 4.517,12.127 11.482,12.127c6.967,0 11.484,-5.461 11.484,-12.127m-27.352,0c-0,-9.032 6.579,-15.997 15.868,-15.997c9.291,-0 15.869,6.965 15.869,15.997c-0,9.031 -6.578,15.998 -15.869,15.998c-9.289,-0 -15.868,-6.967 -15.868,-15.998" style="fill:#cfae78;fill-rule:nonzero;"/><path d="M297.907,439.087c1.464,2.237 4.001,3.269 6.452,3.269c2.71,-0 6.062,-1.72 6.062,-5.075c0,-7.009 -15.007,-2.666 -15.007,-14.535c0,-3.57 3.009,-8.515 10.323,-8.515c3.308,-0 6.491,0.688 8.771,3.483l-3.354,3.054c-1.032,-1.592 -3.053,-2.667 -5.417,-2.667c-4.56,0 -5.938,2.753 -5.938,4.645c0,7.698 15.009,3.096 15.009,14.062c-0,5.892 -4.731,9.418 -10.578,9.418c-3.915,0 -7.654,-1.333 -9.719,-4.214l3.396,-2.925Z" style="fill:#cfae78;fill-rule:nonzero;"/><path d="M331.366,415.006l6.15,-0l9.677,23.05l0.171,-0l9.59,-23.05l6.149,-0l0,30.447l-4.126,-0l-0,-25.03l-0.088,-0l-10.276,25.03l-2.754,-0l-10.278,-25.03l-0.086,-0l-0,25.03l-4.129,-0l0,-30.447Z" style="fill:#cfae78;fill-rule:nonzero;"/><path d="M381.378,415.006l19.654,-0l0,3.87l-15.524,-0l-0,9.074l14.448,-0l-0,3.869l-14.448,-0l-0,9.763l16.299,0l-0,3.871l-20.429,-0l-0,-30.447Z" style="fill:#cfae78;fill-rule:nonzero;"/><path d="M424.772,418.875l-9.806,0l-0,-3.87l23.737,-0l-0,3.87l-9.802,0l-0,26.578l-4.129,0l0,-26.578Z" style="fill:#cfae78;fill-rule:nonzero;"/><rect x="453.84" y="415.006" width="4.13" height="30.447" style="fill:#cfae78;"/><path d="M497.747,421.584c-1.719,-2.235 -4.557,-3.483 -7.352,-3.483c-6.836,-0 -11.355,5.463 -11.355,12.386c0,6.408 4.261,11.868 11.355,11.868c3.482,0 6.149,-1.547 7.956,-4.084l3.481,2.622c-0.903,1.249 -4.556,5.334 -11.525,5.334c-9.674,-0 -15.652,-8.085 -15.652,-15.74c0,-9.461 6.494,-16.255 15.869,-16.255c3.998,-0 8.214,1.503 10.663,4.73l-3.44,2.622Z" style="fill:#cfae78;fill-rule:nonzero;"/><path d="M517.572,415.006l4.13,-0l0,13.159l0.343,-0l13.46,-13.159l5.763,-0l-14.705,14.062l15.694,16.385l-6.021,-0l-14.191,-15.224l-0.343,0l0,15.224l-4.13,-0l0,-30.447Z" style="fill:#cfae78;fill-rule:nonzero;"/><path d="M567.071,407.092l5.505,0l-6.408,6.193l-3.569,-0l4.472,-6.193Zm-3.698,25.373l-11.525,-17.46l5.288,0l8.301,13.374l8.558,-13.374l5.03,0l-11.525,17.46l-0,12.989l-4.127,-0l-0,-12.989Z" style="fill:#cfae78;fill-rule:nonzero;"/><path d="M616.87,439.087c1.46,2.237 3.999,3.269 6.449,3.269c2.709,-0 6.065,-1.72 6.065,-5.075c0,-7.009 -15.01,-2.666 -15.01,-14.535c-0,-3.57 3.012,-8.515 10.323,-8.515c3.311,-0 6.493,0.688 8.774,3.483l-3.357,3.054c-1.033,-1.592 -3.054,-2.667 -5.417,-2.667c-4.56,0 -5.935,2.753 -5.935,4.645c-0,7.698 15.008,3.096 15.008,14.062c0,5.892 -4.73,9.418 -10.58,9.418c-3.912,0 -7.655,-1.333 -9.719,-4.214l3.399,-2.925Z" style="fill:#cfae78;fill-rule:nonzero;"/><path d="M667.572,434.315l-5.675,-13.978l-0.088,-0l-5.763,13.978l11.526,-0Zm-7.397,-19.309l3.743,-0l13.029,30.447l-4.815,0l-3.055,-7.526l-14.491,0l-3.012,7.526l-4.815,0l13.416,-30.447Z" style="fill:#cfae78;fill-rule:nonzero;"/><path d="M691.653,415.006l4.13,-0l0,26.576l13.977,0l-0,3.871l-18.107,-0l0,-30.447Z" style="fill:#cfae78;fill-rule:nonzero;"/><path d="M750.181,430.229c0,-6.665 -4.513,-12.127 -11.483,-12.127c-6.965,-0 -11.479,5.462 -11.479,12.127c-0,6.666 4.514,12.127 11.479,12.127c6.97,0 11.483,-5.461 11.483,-12.127m-27.349,0c0,-9.032 6.58,-15.997 15.866,-15.997c9.29,-0 15.868,6.965 15.868,15.997c0,9.031 -6.578,15.998 -15.868,15.998c-9.286,-0 -15.866,-6.967 -15.866,-15.998" style="fill:#cfae78;fill-rule:nonzero;"/><path d="M771.255,415.006l5.417,-0l16.771,25.028l0.088,0l-0,-25.028l4.127,-0l-0,30.447l-5.247,-0l-16.942,-25.03l-0.086,-0l0,25.03l-4.128,-0l-0,-30.447Z" style="fill:#cfae78;fill-rule:nonzero;"/><path d="M503.795,4.608c-29.681,-0 -57.235,16.003 -71.905,41.764c-22.559,39.607 -8.69,90.184 30.917,112.741c12.46,7.097 26.578,10.848 40.829,10.848c29.683,-0 57.234,-16.004 71.908,-41.765c22.557,-39.609 8.687,-90.185 -30.918,-112.741c-12.461,-7.097 -26.58,-10.847 -40.831,-10.847m-0.159,169.96c-15.048,0 -29.955,-3.959 -43.11,-11.451c-41.812,-23.815 -56.457,-77.208 -32.642,-119.024c15.491,-27.197 44.577,-44.093 75.911,-44.093c15.05,0 29.957,3.959 43.11,11.451c41.814,23.814 56.458,77.209 32.643,119.024c-15.492,27.197 -44.578,44.093 -75.912,44.093m-11.642,-107.979l-1.291,-0.511c-0,-0 -3.101,3.253 -11.782,1.72c-0.456,1.198 -0.304,0.795 -0.456,1.198c-0,-0 9.326,5.55 13.529,-2.407m-9.648,-31.775c-1.095,1.77 -4.233,6.558 -5.767,10.142c-1.301,3.084 -2.287,6.354 -2.318,9.732c0.01,1.852 0.022,3.706 0.384,5.518c0,0 1.023,3.155 -2.305,6.683c-3.052,3.105 -4.866,4.818 -7.474,7.029c-1.012,0.805 -1.555,2.264 -0.857,3.427c1.112,1.864 3.183,2.758 4.757,4.131c0.481,2.51 -2.247,3.891 -3.032,6.012c0.45,1.483 1.613,2.594 2.912,3.403c-0.875,0.802 -1.652,1.746 -1.838,2.938c0.51,1.145 1.576,1.81 2.6,2.419c0.765,2.542 -1.511,5.454 -0.593,7.548c1.177,6.035 12.772,4.877 12.772,4.877c0,0 10.251,-0.113 11.011,5.702c51.095,-35.411 -19.651,-54.495 -10.252,-79.561m87.83,90.324c-3.317,5.826 -7.289,11.047 -11.761,15.629c-15.359,-3.365 -29.366,-7.34 -41.922,-11.14c3.984,-1.468 8.174,-3.491 12.504,-6.309l8.399,-6.177c12.407,-12.18 22.653,-26.499 21.965,-46.377c-1.151,-30.56 -30.217,-40.094 -51.475,-40.094c-5.951,-0 -14.027,0.725 -19.524,1.999l1.061,4.579l14.129,0.209c19.722,0.975 37.804,10.631 38.343,33.998c0.459,16.086 -7.144,29.487 -19.553,41.665l-7.779,6.258c-4.56,2.505 -8.743,4.467 -12.472,5.969l-11.645,-3.109c-10.682,-2.643 -18.614,-4.021 -24.359,-3.561c-7.003,0.688 -10.453,5.4 -10.107,10.337c0.458,6.207 7.006,12.524 20.909,11.377c8.386,-0.804 17.442,-3.716 25.509,-6.904c13.998,6.337 28.821,12.115 44.588,16.884c-23.396,16.023 -54.826,18.353 -81.123,3.374c-36.706,-20.905 -49.515,-67.609 -28.608,-104.313c20.906,-36.707 67.608,-49.515 104.316,-28.607c36.705,20.903 49.512,67.606 28.605,104.313m-81.967,3.222c-4.716,2.989 -13.042,3.643 -18.213,4.101c-6.09,0.576 -9.192,-2.182 -9.421,-4.939c-0.23,-2.183 1.837,-4.599 5.746,-4.94c3.675,-0.344 13.497,2.794 21.888,5.778" style="fill:#cdae79;fill-rule:nonzero;"/><g opacity="0.7"><path d="M427.884,44.092c-23.815,41.816 -9.171,95.21 32.643,119.025c13.154,7.492 28.061,11.452 43.111,11.452c31.331,-0 60.419,-16.896 75.91,-44.093c23.815,-41.818 9.171,-95.21 -32.642,-119.024c-13.155,-7.492 -28.062,-11.452 -43.112,-11.452c-31.334,0 -60.419,16.897 -75.91,44.092Zm34.923,115.02c-39.606,-22.556 -53.476,-73.132 -30.919,-112.739c14.672,-25.761 42.226,-41.765 71.906,-41.765c14.252,0 28.371,3.752 40.831,10.848c39.606,22.556 53.478,73.13 30.919,112.74c-14.674,25.761 -42.226,41.765 -71.906,41.765c-14.253,0 -28.371,-3.75 -40.831,-10.849Zm-25.553,-109.681c-20.904,36.706 -8.097,83.41 28.609,104.315c26.297,14.979 57.726,12.649 81.123,-3.375c-15.767,-4.769 -30.59,-10.547 -44.589,-16.884c-8.067,3.189 -17.122,6.101 -25.506,6.904c-13.905,1.147 -20.454,-5.17 -20.91,-11.376c-0.347,-4.938 3.103,-9.65 10.106,-10.338c5.746,-0.459 13.677,0.918 24.359,3.562l11.645,3.108c3.731,-1.502 7.911,-3.462 12.47,-5.97l7.782,-6.257c12.408,-12.178 20.012,-25.578 19.552,-41.665c-0.539,-23.366 -18.623,-33.023 -38.343,-33.999l-14.129,-0.208l-1.061,-4.58c5.497,-1.273 13.572,-1.999 19.524,-1.999c21.258,-0 50.324,9.536 51.475,40.095c0.688,19.879 -9.558,34.198 -21.965,46.376l-8.4,6.178c-4.329,2.819 -8.519,4.841 -12.503,6.31c12.556,3.8 26.564,7.774 41.921,11.141c4.471,-4.583 8.443,-9.807 11.762,-15.632c20.906,-36.706 8.1,-83.41 -28.605,-104.312c-11.949,-6.805 -24.954,-10.038 -37.786,-10.038c-26.59,-0 -52.43,13.886 -66.531,38.644Zm31.561,54.365c-0.918,-2.093 1.359,-5.005 0.593,-7.547c-1.025,-0.61 -2.091,-1.275 -2.6,-2.421c0.185,-1.19 0.963,-2.135 1.838,-2.936c-1.301,-0.81 -2.464,-1.92 -2.912,-3.404c0.785,-2.121 3.513,-3.503 3.033,-6.011c-1.575,-1.373 -3.646,-2.267 -4.758,-4.132c-0.7,-1.164 -0.155,-2.62 0.859,-3.426c2.606,-2.21 4.422,-3.924 7.472,-7.031c3.326,-3.527 2.305,-6.681 2.305,-6.681c-0.362,-1.814 -0.375,-3.667 -0.382,-5.519c0.029,-3.377 1.013,-6.647 2.316,-9.731c1.534,-3.586 4.672,-8.371 5.767,-10.143c-9.4,25.067 61.347,44.15 10.252,79.561c-0.76,-5.815 -11.011,-5.701 -11.011,-5.701c0,-0 -0.892,0.087 -2.207,0.087c-3.425,0 -9.716,-0.603 -10.565,-4.965Zm10.106,-35.998c-0.456,1.198 -0.303,0.796 -0.456,1.198c-0,0 9.326,5.551 13.529,-2.406l-1.291,-0.512c-0,0 -3.101,3.253 -11.782,1.72Zm-12.602,54.785c-3.909,0.341 -5.974,2.758 -5.744,4.939c0.229,2.757 3.331,5.515 9.421,4.939c5.171,-0.457 13.497,-1.113 18.212,-4.1c-7.965,-2.832 -17.218,-5.804 -21.282,-5.804c-0.217,-0 -0.419,0.009 -0.607,0.026Z" style="fill:url(#_Linear1);fill-rule:nonzero;"/></g></g></g><g id="menu"></g><defs><linearGradient id="_Linear1" x1="0" y1="0" x2="1" y2="0" gradientUnits="userSpaceOnUse" gradientTransform="matrix(164.166,164.166,-164.166,164.166,421.893,-8.81319)"><stop offset="0" style="stop-color:#c18f37;stop-opacity:1"/><stop offset="0.07" style="stop-color:#ffd45c;stop-opacity:1"/><stop offset="0.17" style="stop-color:#8c4b13;stop-opacity:1"/><stop offset="0.27" style="stop-color:#c18f37;stop-opacity:1"/><stop offset="0.48" style="stop-color:#fff9ae;stop-opacity:1"/><stop offset="0.68" style="stop-color:#c18f37;stop-opacity:1"/><stop offset="0.81" style="stop-color:#7d4402;stop-opacity:1"/><stop offset="1" style="stop-color:#c18f37;stop-opacity:1"/></linearGradient></defs></svg>