<?xml version="1.0" encoding="UTF-8" standalone="no"?><!DOCTYPE svg PUBLIC "-//W3C//DTD SVG 1.1//EN" "http://www.w3.org/Graphics/SVG/1.1/DTD/svg11.dtd"><svg width="100%" height="100%" viewBox="0 0 579 677" version="1.1" xmlns="http://www.w3.org/2000/svg" xmlns:xlink="http://www.w3.org/1999/xlink" xml:space="preserve" xmlns:serif="http://www.serif.com/" style="fill-rule:evenodd;clip-rule:evenodd;stroke-linejoin:round;stroke-miterlimit:2;"><path d="M252.156,649.032c22.891,13.832 51.568,13.832 74.462,0c74.721,-45.061 235.837,-175.355 235.462,-460.799c0.074,-20.946 -15.947,-38.435 -36.834,-40.171c-49.005,-3.7 -138.192,-23.602 -201.709,-113.635c-7.805,-11.13 -20.551,-17.76 -34.159,-17.76c-13.589,-0 -26.351,6.63 -34.156,17.76c-63.517,90.033 -152.692,109.935 -201.709,113.635c-20.887,1.736 -36.923,19.225 -36.846,40.186c-0.363,285.445 160.738,415.723 235.459,460.799l0.03,-0.015Zm-150.411,-440.352c66.37,-11.826 127.154,-44.733 173.333,-93.842c7.762,-8.246 20.872,-8.246 28.619,0c46.179,49.109 106.963,82.016 173.333,93.842c9.8,1.797 16.731,10.585 16.202,20.535c-12.158,223.018 -141.06,324.966 -198.067,359.335c-3.549,2.176 -8.006,2.176 -11.571,-0c-57.022,-34.384 -185.908,-136.332 -198.067,-359.35c-0.529,-9.951 6.402,-18.738 16.202,-20.536l0.016,0.016Z" style="fill:#514a40;fill-rule:nonzero;stroke:#f4eee7;stroke-width:33.33px;"/><path d="M290.615,466.617c63.967,-0.05 116.767,-50.017 120.346,-113.884l-38.071,0c-2.633,32.684 -24.362,60.709 -55.354,71.404c-30.987,10.692 -65.379,2.034 -87.612,-22.054c-22.234,-24.104 -28.092,-59.083 -14.942,-89.112c13.167,-30.029 42.838,-49.429 75.633,-49.429l0,-38.005c-66.566,0 -120.537,53.971 -120.537,120.538c-0,66.571 53.971,120.542 120.537,120.542Z" style="fill:#514a40;fill-rule:nonzero;"/><path d="M257.265,306.508l-30.595,27.963l45.554,49.837c3.891,4.267 9.391,6.709 15.171,6.738l0.129,-0c5.729,-0 11.2,-2.375 15.121,-6.542l96.712,-103.075l-30.242,-28.371l-81.395,86.75l-30.455,-33.3Z" style="fill:#514a40;fill-rule:nonzero;"/></svg>