<?xml version="1.0" encoding="UTF-8" standalone="no"?>
<!DOCTYPE svg PUBLIC "-//W3C//DTD SVG 1.1//EN" "http://www.w3.org/Graphics/SVG/1.1/DTD/svg11.dtd">
<svg width="100%" height="100%" viewBox="0 0 85 102" version="1.1" xmlns="http://www.w3.org/2000/svg" xmlns:xlink="http://www.w3.org/1999/xlink" xml:space="preserve" xmlns:serif="http://www.serif.com/" style="fill-rule:evenodd;clip-rule:evenodd;stroke-linejoin:round;stroke-miterlimit:2;">
    <g transform="matrix(1,0,0,1,-328.333,-261.041)">
        <g transform="matrix(1,0,0,1,-3699.83,-1518.55)">
            <g transform="matrix(0.673942,0,0,0.670993,1293.31,577.476)">
                <path d="M4120.5,1818C4154.99,1818 4183,1846.01 4183,1880.5C4183,1915 4154.99,1943 4120.5,1943C4086.01,1943 4058,1915 4058,1880.5C4058,1846.01 4086.01,1818 4120.5,1818ZM4120.5,1827.62C4149.69,1827.62 4173.38,1851.31 4173.38,1880.5C4173.38,1909.69 4149.69,1933.38 4120.5,1933.38C4091.31,1933.38 4067.62,1909.69 4067.62,1880.5C4067.62,1851.31 4091.31,1827.62 4120.5,1827.62Z" style="fill:rgb(187,152,112);"/>
            </g>
        </g>
        <g transform="matrix(1,0,0,1,-3699.83,-1518.55)">
            <g transform="matrix(0.490459,-0.29087,0.289597,0.488313,1504.76,2119.54)">
                <path d="M4110.72,1818.77C4080.36,1823.58 4058,1849.76 4058,1880.5C4058,1915 4086.01,1943 4120.5,1943C4144,1943 4165.52,1929.82 4176.19,1908.87L4170.61,1906.03C4161.01,1924.88 4141.65,1936.74 4120.5,1936.74C4089.46,1936.74 4064.26,1911.54 4064.26,1880.5C4064.26,1852.84 4084.38,1829.28 4111.7,1824.95L4110.72,1818.77Z" style="fill:white;"/>
            </g>
        </g>
        <g transform="matrix(1,0,0,1,-3699.83,-1518.55)">
            <g transform="matrix(0.802911,-0.350881,0.352423,0.799398,59.5761,1820.46)">
                <path d="M4178.61,1783L4190.5,1791.64L4185.96,1805.61L4171.26,1805.61L4166.72,1791.64L4178.61,1783Z" style="fill:rgb(187,152,112);"/>
            </g>
        </g>
    </g>
</svg>
