<?xml version="1.0" encoding="UTF-8" standalone="no"?>
<!DOCTYPE svg PUBLIC "-//W3C//DTD SVG 1.1//EN" "http://www.w3.org/Graphics/SVG/1.1/DTD/svg11.dtd">
<svg width="100%" height="100%" viewBox="0 0 96 116" version="1.1" xmlns="http://www.w3.org/2000/svg" xmlns:xlink="http://www.w3.org/1999/xlink" xml:space="preserve" xmlns:serif="http://www.serif.com/" style="fill-rule:evenodd;clip-rule:evenodd;stroke-linejoin:round;stroke-miterlimit:2;">
    <g transform="matrix(1,0,0,1,-375.91,-241.028)">
        <g transform="matrix(1,0,0,1,-3699.83,-1518.55)">
            <g transform="matrix(0.766052,0,0,0.7627,967.104,393.002)">
                <path d="M4120.5,1818C4154.99,1818 4183,1846.01 4183,1880.5C4183,1915 4154.99,1943 4120.5,1943C4086.01,1943 4058,1915 4058,1880.5C4058,1846.01 4086.01,1818 4120.5,1818ZM4120.5,1826.3C4150.42,1826.3 4174.7,1850.58 4174.7,1880.5C4174.7,1910.42 4150.42,1934.7 4120.5,1934.7C4090.58,1934.7 4066.3,1910.42 4066.3,1880.5C4066.3,1850.58 4090.58,1826.3 4120.5,1826.3Z" style="fill:rgb(187,152,112);"/>
            </g>
        </g>
        <g transform="matrix(1,0,0,1,-3699.83,-1518.55)">
            <g transform="matrix(0.831553,0.295571,-0.29687,0.827915,1200.9,-951.669)">
                <path d="M4178.61,1783L4190.5,1791.64L4185.96,1805.61L4171.26,1805.61L4166.72,1791.64L4178.61,1783Z" style="fill:rgb(187,152,112);"/>
            </g>
        </g>
    </g>
</svg>
