<?xml version="1.0" encoding="UTF-8" standalone="no"?><!DOCTYPE svg PUBLIC "-//W3C//DTD SVG 1.1//EN" "http://www.w3.org/Graphics/SVG/1.1/DTD/svg11.dtd"><svg width="100%" height="100%" viewBox="0 0 3334 2500" version="1.1" xmlns="http://www.w3.org/2000/svg" xmlns:xlink="http://www.w3.org/1999/xlink" xml:space="preserve" xmlns:serif="http://www.serif.com/" style="fill-rule:evenodd;clip-rule:evenodd;stroke-linecap:round;stroke-linejoin:round;stroke-miterlimit:1.5;"><path d="M3170.83,820.833c0,-57.491 -46.675,-104.166 -104.166,-104.166l-2725,-0c-57.491,-0 -104.167,46.675 -104.167,104.166l0,1341.67c0,57.491 46.676,104.167 104.167,104.167l2725,-0c57.491,-0 104.166,-46.676 104.166,-104.167l0,-1341.67Z" style="fill:none;stroke:#000;stroke-width:33.33px;"/><path d="M1439.38,1111.23l-141.585,-0c4.848,-23.56 0.226,-48.191 -13.189,-68.482c-9.243,-10.54 -22.714,-16.515 -36.805,-16.064c-66.678,9.695 -129.016,39.173 -178.785,84.546l-144.629,-0c-51.29,-45.993 -115.601,-75.527 -183.857,-84.546c-14.091,-0.451 -27.957,5.299 -37.2,16.064c-13.189,20.291 -17.586,44.922 -12.738,68.482l-140.289,-0c-11.667,-0 -21.136,9.469 -21.136,21.136l-0,169.09c-0,11.668 9.469,21.137 21.136,21.137l287.115,-0l-22.883,42.272l-221.959,0c-11.668,0 -21.137,9.469 -21.137,21.136l0,549.544c0,11.668 9.469,21.137 21.137,21.137l338.18,-0c11.668,-0 21.137,-9.469 21.137,-21.137l-0,-537.651l42.272,-84.545l42.273,110.754l-0,511.442c-0,11.668 9.469,21.137 21.136,21.137l338.181,-0c11.667,-0 21.136,-9.469 21.136,-21.137l0,-549.544c0,-11.667 -9.469,-21.136 -21.136,-21.136l-235.317,0l-16.966,-42.272l295.908,-0c11.668,-0 21.137,-9.469 21.137,-21.137l-0,-169.09c-0,-11.667 -9.469,-21.136 -21.137,-21.136Zm-313.324,282.493l-20.235,-6.82c-11.047,-3.551 -22.94,2.424 -26.66,13.415l-2.874,8.342l-53.715,-135.16c9.695,-3.551 18.488,-8.793 26.21,-15.613l28.858,13.866l14.316,35.847l34.325,85.898l-0.225,0.225Zm-229.625,21.587l-11.442,-18.938c-5.072,-8.623 -15.443,-12.569 -24.912,-9.243l-12.739,4.171l62.057,-115.376l30.83,-13.866c6.595,5.298 14.091,9.695 22.039,12.738l-66.058,140.684l0.225,-0.17Zm140.007,-219.535c-0,56.363 -84.545,56.363 -84.545,-0c-0,-56.364 84.545,-56.364 84.545,-0Zm216.436,-126.818c6.82,7.947 3.325,38.102 -0,58.787l-0,6.82c-0,7.722 -2.199,14.767 -2.875,21.587c-0.394,5.693 -0.394,11.217 0,16.966l0,13.414c0,24.011 0,73.949 -13.189,88.716c-13.189,14.767 -78.176,-12.343 -133.638,-37.2l-29.083,-13.414c7.722,-19.389 7.722,-40.751 -0,-60.14c55.743,-53.263 131.439,-95.536 173.712,-95.536c1.578,-0.676 3.551,-0.676 5.073,-0Zm-517.417,-0c1.578,-0.676 3.551,-0.676 5.073,-0c66.959,11.667 128.79,44.02 176.812,92.267c-9.018,21.136 -9.018,44.922 -0,66.058c-61.662,27.505 -151.674,62.056 -164.018,49.938c-12.343,-12.287 -12.794,-64.705 -12.794,-88.716l-0,-13.866c0.451,-5.749 0.451,-11.216 -0,-16.965c-0,-6.82 -0,-13.865 -2.818,-21.587l-0,-6.82c-5.524,-21.531 -8.85,-51.065 -2.255,-60.534l-0,0.225Z" style="fill:#bb9870;fill-opacity:0.8;fill-rule:nonzero;"/><path d="M1791.67,1170.83l754.166,0" style="fill:none;stroke:#000;stroke-width:29.17px;"/><path d="M1791.67,1629.17l995.833,-0" style="fill:none;stroke:#000;stroke-width:20.83px;"/><path d="M1791.67,1754.17l995.833,-0" style="fill:none;stroke:#000;stroke-width:20.83px;"/><path d="M1791.67,1504.17l754.166,-0" style="fill:none;stroke:#000;stroke-width:20.83px;"/><path d="M1791.67,1379.17l1158.33,-0" style="fill:none;stroke:#000;stroke-width:20.83px;"/></svg>