<?xml version="1.0" encoding="UTF-8" standalone="no"?><!DOCTYPE svg PUBLIC "-//W3C//DTD SVG 1.1//EN" "http://www.w3.org/Graphics/SVG/1.1/DTD/svg11.dtd"><svg width="100%" height="100%" viewBox="0 0 3334 2500" version="1.1" xmlns="http://www.w3.org/2000/svg" xmlns:xlink="http://www.w3.org/1999/xlink" xml:space="preserve" xmlns:serif="http://www.serif.com/" style="fill-rule:evenodd;clip-rule:evenodd;stroke-linecap:round;stroke-linejoin:round;stroke-miterlimit:1.5;"><g id="gift"><path d="M3146.22,769.44c-2.031,-57.455 -50.326,-102.452 -107.782,-100.421l-2723.3,96.263c-57.455,2.031 -102.452,50.326 -100.422,107.782l47.396,1340.83c2.031,57.455 50.327,102.453 107.782,100.422l2723.3,-96.264c57.455,-2.031 102.453,-50.326 100.422,-107.781l-47.396,-1340.83Z" style="fill:none;stroke:#000;stroke-width:33.33px;"/><path d="M1426.11,1120.82l-141.497,5.002c4.012,-23.717 -1.477,-48.169 -15.6,-67.973c-9.61,-10.207 -23.283,-15.702 -37.349,-14.754c-66.294,12.044 -127.552,43.706 -175.687,90.808l-144.538,5.11c-52.884,-44.152 -118.198,-71.397 -186.73,-77.998c-14.098,0.047 -27.752,6.283 -36.609,17.368c-12.464,20.744 -15.988,45.515 -10.311,68.889l-140.201,4.956c-11.66,0.412 -20.789,10.209 -20.377,21.869l5.974,168.985c0.412,11.66 10.209,20.789 21.869,20.377l286.937,-10.143l-21.376,43.055l-221.821,7.841c-11.66,0.412 -20.789,10.209 -20.377,21.869l19.414,549.201c0.412,11.66 10.209,20.789 21.869,20.377l337.97,-11.947c11.66,-0.412 20.789,-10.21 20.377,-21.87l-18.994,-537.315l39.26,-85.986l46.159,109.192l18.067,511.123c0.412,11.66 10.21,20.788 21.87,20.376l337.97,-11.947c11.66,-0.412 20.788,-10.209 20.376,-21.869l-19.413,-549.201c-0.412,-11.66 -10.21,-20.789 -21.87,-20.377l-235.171,8.313l-18.448,-41.647l295.724,-10.453c11.66,-0.412 20.788,-10.21 20.376,-21.87l-5.973,-168.985c-0.412,-11.66 -10.21,-20.788 -21.87,-20.376Zm-303.149,293.386l-20.463,-6.101c-11.166,-3.158 -22.84,3.232 -26.17,14.348l-2.578,8.438l-58.455,-133.178c9.563,-3.891 18.165,-9.44 25.641,-16.529l29.33,12.838l15.574,35.319l37.338,84.632l-0.217,0.233Zm-228.719,29.685l-12.104,-18.522c-5.374,-8.439 -15.878,-12.015 -25.224,-8.358l-12.582,4.619l57.941,-117.496l30.322,-14.946c6.778,5.062 14.425,9.19 22.474,11.951l-61.047,142.929l0.22,-0.177Zm132.164,-224.344c1.991,56.328 -82.502,59.315 -84.493,2.986c-1.991,-56.328 82.502,-59.315 84.493,-2.986Zm211.82,-134.385c7.097,7.702 4.67,37.961 2.077,58.751l0.241,6.815c0.273,7.717 -1.675,14.836 -2.11,21.676c-0.193,5.703 0.002,11.223 0.599,16.954l0.474,13.407c0.848,23.995 2.612,73.902 -10.047,89.126c-12.659,15.224 -78.563,-9.574 -134.868,-32.456l-29.539,-12.378c7.032,-19.65 6.277,-40.998 -2.125,-60.103c53.827,-55.199 127.983,-100.119 170.229,-101.613c1.553,-0.731 3.525,-0.801 5.069,-0.179Zm-517.093,18.279c1.553,-0.732 3.525,-0.802 5.069,-0.18c67.33,9.295 130.265,39.443 179.962,85.964c-8.266,21.441 -7.426,45.212 2.333,66.016c-60.651,29.667 -149.387,67.376 -162.151,55.701c-12.77,-11.843 -15.072,-64.212 -15.921,-88.208l-0.489,-13.857c0.247,-5.761 0.054,-11.225 -0.6,-16.955c-0.241,-6.816 -0.49,-13.857 -3.579,-21.474l-0.241,-6.816c-6.28,-21.322 -10.647,-50.721 -4.391,-60.417l0.008,0.226Z" style="fill:#bb9870;fill-opacity:0.8;fill-rule:nonzero;"/><path d="M1780.28,1167.94l753.696,-26.642" style="fill:none;stroke:#000;stroke-width:29.17px;"/><path d="M1796.47,1625.99l995.212,-35.179" style="fill:none;stroke:#000;stroke-width:20.83px;"/><path d="M1800.88,1750.91l995.212,-35.179" style="fill:none;stroke:#000;stroke-width:20.83px;"/><path d="M1792.05,1501.07l753.696,-26.642" style="fill:none;stroke:#000;stroke-width:20.83px;"/><path d="M1787.64,1376.15l1157.61,-40.92" style="fill:none;stroke:#000;stroke-width:20.83px;"/></g></svg>